<?xml version="1.0" encoding="utf-8"?>
<!-- Generator: Adobe Illustrator 26.0.1, SVG Export Plug-In . SVG Version: 6.00 Build 0)  -->
<svg version="1.1" id="Capa_1" xmlns="http://www.w3.org/2000/svg" xmlns:xlink="http://www.w3.org/1999/xlink" x="0px" y="0px"
	 viewBox="0 0 1000 1000" style="enable-background:new 0 0 1000 1000;" xml:space="preserve">
<style type="text/css">
	.st0{fill:#70B22D;}
</style>
<path id="path47-5" class="st0" d="M504.2,20.5c-58.3,0.1-105.6,47.4-105.5,105.8c0.1,58.3,47.4,105.6,105.7,105.6
	c58.3,0,105.6-47.3,105.6-105.7V126C609.9,67.6,562.6,20.4,504.2,20.5z M155.6,264.6c-18.6,0.1-37.5,1.1-55.2,5.6
	c-11.7,3-23,7.8-30.3,15.4c-9.2,9.5-10.4,22.3-5.9,33.3c4,9.7,14.8,16.9,26.8,21.1c25.9,8.9,54.6,10.7,81.8,16.3
	c5,1.2,10.6,2.6,13.7,6c3.2,4.1,1.3,9.7-4,12.2c-8.8,4.5-20.1,4.5-30.4,4.4c-9.4-0.4-19.7-1.2-27.2-5.9c-5.5-3.4-6.5-9.1-5.2-14.1
	l-60.6,0c-0.2,9.2,1.6,18.9,8.4,26.8c5.6,6.8,14.8,11.5,24.6,14.4c15.7,4.6,32.7,6,49.4,6.4c22.7,0.4,45.8-0.3,67.6-5.4
	c13-3.2,25.8-8.3,34.1-16.6c14.8-14.8,11.3-38.3-8.3-49.8c-9.8-5.7-21.5-9.2-33.4-11.5c-17.5-3.6-35.3-6.3-52.9-9.2
	c-6.2-1.2-12.8-2.3-18-5.2c-5.5-2.9-5.9-9.8-0.3-12.9c7.2-4.1,16.8-4,25.4-4c9.1,0.2,19,0.7,26.5,5c4.2,2.3,5.9,6.3,5.9,10.1
	l57.6-0.1c-0.2-7.3-1.6-14.9-6.9-21.2c-6.2-7.8-17.1-12.7-28.3-15.5C192.8,265.6,174.1,264.7,155.6,264.6L155.6,264.6z M280.6,268.9
	l0,137.7l168.1,0l0-30H342.3v-26.7h94.9v-29.3h-94.9l0-21.9l102.6,0l-0.1-29.7L280.6,268.9z M557.5,269c0,0-51.9,0-77.9,0l0,137.7
	l59,0l0-92.7l80.8,92.6l81,0.1l0-137.7l-59.1,0l0.1,92L557.5,269z M805.6,269.2c0,0-63.6,91.9-95.6,137.7l61.9,0l14.9-24.8h95.7
	l13.9,24.9l68.8,0L874,269.2L805.6,269.2z M836.6,302.1l29.4,49.9l-60.7,0.1L836.6,302.1z M10.6,445.6l0.5,75l280.1-1
	c14.3,3.1,22.6,12.4,19.7,33.5L138.6,854.7l56.1,52.5l266.9-461.6L10.6,445.6z M545.2,446.2l262.4,459.6l58-52.1L691.3,552.9
	c-2.9-21.2,5.4-30.6,19.7-33.7l280.2,1l-0.1-73.7L545.2,446.2z M500.9,522.3L254.8,944.7l65.4,31.9L484.4,699
	c5.7-4.6,11.4-7.1,17.1-7.3c6-0.2,12.2,2,18.3,6.8l163.8,278.4l67.4-35.2L500.9,522.3z"/>
<g id="_x23_000000ff-2" transform="matrix(0.31570611,0,0,0.23560774,-391.49698,-10.601126)">
</g>
</svg>
