<svg width="99" height="32" viewBox="0 0 99 32" fill="none" xmlns="http://www.w3.org/2000/svg">
<path fill-rule="evenodd" clip-rule="evenodd" d="M16.1358 25.8368C12.7457 25.6295 9.49929 23.5559 7.92105 20.5255C6.45641 17.7133 6.47945 14.1805 7.97641 11.3898C9.65225 8.26594 12.9764 6.36098 16.6558 6.19714C16.6558 6.19714 17.57 6.13858 18.1803 5.79202C19.9908 4.76322 20.2612 1.72642 18.3153 0.486418C17.7915 0.152658 17.1662 -0.00190234 16.5428 1.76635e-05C10.3959 0.0588977 4.45193 3.90018 1.95337 9.59907C-0.146475 14.3892 0.290325 20.1981 3.14313 24.64C5.41353 28.1748 9.11625 30.7597 13.2238 31.6535C18.8449 32.8768 25.0711 30.7978 28.8286 26.4141C32.554 22.0672 33.6923 15.6416 31.6059 10.2474C30.4097 7.1549 28.2903 4.33474 25.4545 2.6381C25.3063 2.54946 25.1511 2.4765 24.9911 2.41826C27.844 4.86146 29.6526 8.48675 29.6526 12.5303C29.6526 19.88 23.6779 25.8468 16.3182 25.8468C16.258 25.8468 16.2519 25.8439 16.1358 25.8368Z" fill="#0591F5"/>
<path d="M91.0136 17.1057C91.0136 16.2829 90.905 15.7 90.6879 15.3571C90.4822 15.0143 90.1222 14.8429 89.6079 14.8429C89.4479 14.8429 89.2822 14.8543 89.1108 14.8771C88.9393 14.8886 88.7736 14.9057 88.6136 14.9286V21.8886H86.0593V13.18C86.2765 13.1229 86.5279 13.0657 86.8136 13.0086C87.1108 12.94 87.4193 12.8829 87.7393 12.8371C88.0708 12.78 88.4079 12.74 88.7508 12.7171C89.0936 12.6829 89.4308 12.6657 89.7622 12.6657C90.4136 12.6657 90.9393 12.7514 91.3393 12.9229C91.7508 13.0829 92.0879 13.2771 92.3508 13.5057C92.7165 13.2429 93.1336 13.0371 93.6022 12.8886C94.0822 12.74 94.5222 12.6657 94.9222 12.6657C95.6422 12.6657 96.2308 12.7686 96.6879 12.9743C97.1565 13.1686 97.5279 13.4486 97.8022 13.8143C98.0765 14.18 98.265 14.6143 98.3679 15.1171C98.4708 15.62 98.5222 16.18 98.5222 16.7971V21.8886H95.9679V17.1057C95.9679 16.2829 95.8593 15.7 95.6422 15.3571C95.4365 15.0143 95.0765 14.8429 94.5622 14.8429C94.425 14.8429 94.2308 14.8771 93.9793 14.9457C93.7393 15.0143 93.5393 15.1 93.3793 15.2029C93.4593 15.4657 93.5108 15.7457 93.5336 16.0429C93.5565 16.3286 93.5679 16.6371 93.5679 16.9686V21.8886H91.0136V17.1057Z" fill="#273B49"/>
<path d="M80.0296 20.1057C80.281 20.1057 80.521 20.1 80.7496 20.0886C80.9782 20.0771 81.161 20.06 81.2982 20.0371V18.1C81.1953 18.0771 81.041 18.0543 80.8353 18.0314C80.6296 18.0086 80.441 17.9971 80.2696 17.9971C80.0296 17.9971 79.801 18.0143 79.5839 18.0486C79.3782 18.0714 79.1953 18.1229 79.0353 18.2029C78.8753 18.2829 78.7496 18.3914 78.6582 18.5286C78.5667 18.6657 78.521 18.8371 78.521 19.0429C78.521 19.4429 78.6525 19.7229 78.9153 19.8829C79.1896 20.0314 79.561 20.1057 80.0296 20.1057ZM79.8239 12.6314C80.5782 12.6314 81.2067 12.7171 81.7096 12.8886C82.2124 13.06 82.6124 13.3057 82.9096 13.6257C83.2182 13.9457 83.4353 14.3343 83.561 14.7914C83.6867 15.2486 83.7496 15.7571 83.7496 16.3171V21.6314C83.3839 21.7114 82.8753 21.8029 82.2239 21.9057C81.5724 22.02 80.7839 22.0771 79.8582 22.0771C79.2753 22.0771 78.7439 22.0257 78.2639 21.9229C77.7953 21.82 77.3896 21.6543 77.0467 21.4257C76.7039 21.1857 76.441 20.8771 76.2582 20.5C76.0753 20.1229 75.9839 19.66 75.9839 19.1114C75.9839 18.5857 76.0867 18.14 76.2924 17.7743C76.5096 17.4086 76.7953 17.1171 77.1496 16.9C77.5039 16.6829 77.9096 16.5286 78.3667 16.4371C78.8239 16.3343 79.2982 16.2829 79.7896 16.2829C80.121 16.2829 80.4124 16.3 80.6639 16.3343C80.9267 16.3571 81.1382 16.3914 81.2982 16.4371V16.1971C81.2982 15.7629 81.1667 15.4143 80.9039 15.1514C80.641 14.8886 80.1839 14.7571 79.5324 14.7571C79.0982 14.7571 78.6696 14.7914 78.2467 14.86C77.8239 14.9171 77.4582 15.0029 77.1496 15.1171L76.8239 13.06C76.9724 13.0143 77.1553 12.9686 77.3724 12.9229C77.601 12.8657 77.8467 12.82 78.1096 12.7857C78.3724 12.74 78.6467 12.7057 78.9324 12.6829C79.2296 12.6486 79.5267 12.6314 79.8239 12.6314Z" fill="#273B49"/>
<path d="M66.1442 17.4486C66.1442 16.6486 66.2642 15.9514 66.5042 15.3571C66.7556 14.7514 67.0813 14.2486 67.4813 13.8486C67.8813 13.4486 68.3384 13.1457 68.8527 12.94C69.3784 12.7343 69.9156 12.6314 70.4642 12.6314C71.7442 12.6314 72.7556 13.0257 73.4984 13.8143C74.2413 14.5914 74.6127 15.74 74.6127 17.26C74.6127 17.4086 74.607 17.5743 74.5956 17.7571C74.5842 17.9286 74.5727 18.0829 74.5613 18.22H68.767C68.8242 18.7457 69.0699 19.1629 69.5042 19.4714C69.9384 19.78 70.5213 19.9343 71.2527 19.9343C71.7213 19.9343 72.1784 19.8943 72.6242 19.8143C73.0813 19.7229 73.4527 19.6143 73.7384 19.4886L74.0813 21.5629C73.9442 21.6314 73.7613 21.7 73.5327 21.7686C73.3042 21.8371 73.047 21.8943 72.7613 21.94C72.487 21.9971 72.1899 22.0429 71.8699 22.0771C71.5499 22.1114 71.2299 22.1286 70.9099 22.1286C70.0984 22.1286 69.3899 22.0086 68.7842 21.7686C68.1899 21.5286 67.6927 21.2029 67.2927 20.7914C66.9042 20.3686 66.6127 19.8714 66.4184 19.3C66.2356 18.7286 66.1442 18.1114 66.1442 17.4486ZM72.1442 16.4714C72.1327 16.2543 72.0927 16.0429 72.0242 15.8371C71.967 15.6314 71.8699 15.4486 71.7327 15.2886C71.607 15.1286 71.4413 14.9971 71.2356 14.8943C71.0413 14.7914 70.7956 14.74 70.4984 14.74C70.2127 14.74 69.967 14.7914 69.7613 14.8943C69.5556 14.9857 69.3842 15.1114 69.247 15.2714C69.1099 15.4314 69.0013 15.62 68.9213 15.8371C68.8527 16.0429 68.8013 16.2543 68.767 16.4714H72.1442Z" fill="#273B49"/>
<path d="M59.2046 10.6257L61.7589 10.2143V12.8714H64.8275V14.9971H61.7589V18.1686C61.7589 18.7057 61.8504 19.1343 62.0332 19.4543C62.2275 19.7743 62.6104 19.9343 63.1818 19.9343C63.4561 19.9343 63.7361 19.9114 64.0218 19.8657C64.3189 19.8086 64.5875 19.7343 64.8275 19.6429L65.1875 21.6314C64.8789 21.7571 64.5361 21.8657 64.1589 21.9571C63.7818 22.0486 63.3189 22.0943 62.7704 22.0943C62.0732 22.0943 61.4961 22.0029 61.0389 21.82C60.5818 21.6257 60.2161 21.3629 59.9418 21.0314C59.6675 20.6886 59.4732 20.2771 59.3589 19.7971C59.2561 19.3171 59.2046 18.7857 59.2046 18.2029V10.6257Z" fill="#273B49"/>
<path d="M49.7115 19.7114C49.8372 19.7229 49.9801 19.7343 50.1401 19.7457C50.3115 19.7457 50.5115 19.7457 50.7401 19.7457C52.0772 19.7457 53.0658 19.4086 53.7058 18.7343C54.3572 18.06 54.6829 17.1286 54.6829 15.94C54.6829 14.6943 54.3744 13.7514 53.7572 13.1114C53.1401 12.4714 52.1629 12.1514 50.8258 12.1514C50.6429 12.1514 50.4544 12.1571 50.2601 12.1686C50.0658 12.1686 49.8829 12.18 49.7115 12.2029V19.7114ZM57.4429 15.94C57.4429 16.9686 57.2829 17.8657 56.9629 18.6314C56.6429 19.3971 56.1858 20.0314 55.5915 20.5343C55.0087 21.0371 54.2944 21.4143 53.4487 21.6657C52.6029 21.9171 51.6544 22.0429 50.6029 22.0429C50.1229 22.0429 49.5629 22.02 48.9229 21.9743C48.2829 21.94 47.6544 21.86 47.0372 21.7343V10.1629C47.6544 10.0486 48.2944 9.97429 48.9572 9.94C49.6315 9.89429 50.2087 9.87143 50.6887 9.87143C51.7058 9.87143 52.6258 9.98571 53.4487 10.2143C54.2829 10.4429 54.9972 10.8029 55.5915 11.2943C56.1858 11.7857 56.6429 12.4143 56.9629 13.18C57.2829 13.9457 57.4429 14.8657 57.4429 15.94Z" fill="#273B49"/>
<path d="M36.641 21.8886V10.0086H44.6639V12.2543H39.3153V14.5857H44.0639V16.78H39.3153V19.6429H45.0582V21.8886H36.641Z" fill="#273B49"/>
</svg>
